# xmcd
#
# Track frame offsets: 
#        150
#        14309
#        26933
#        40091
#        51514
#        61760
#        75223
#        86371
#        100788
#        109858
#        120164
#        131841
#        142870
#        153587
#        167348
#        178043
#        188434
#        201866
#        214600
#        225377
#        237482
#        249063
#
# Disc length: 3484 seconds
#
# Revision: 0
# Processed by: cddbd v1.5.1PL0 Copyright (c) Steve Scherf et al.
# Submitted via: ExactAudioCopy v0.95a5
#
DISCID=0c0d9a16
DTITLE=Various Artist - The Best of Country Guitar Vol.1
DYEAR=2001
DGENRE=Country
TTITLE0=Joe Maphis/Flying Fingers
TTITLE1=Jimmie Saul and His Prairie Drifters/Firecracker Stomp
TTITLE2=Les Paul and His Trio/Steel Guitar Rag
TTITLE3=Jimmy Bryant/Red Headed Polka
TTITLE4=Speedy West and Jimmy Bryant/Hub Cap Roll
TTITLE5=Texas Jim Lewis and His Lone Star Cowboys/The Wild Guitar
TTITLE6=Cecil Campbell and His Tennessee Ramblers/Tar Heel Rag
TTITLE7=Hank Garland and His Sugar Footers/Guitar Shuffle
TTITLE8=Hank Snow/Wabash Blues
TTITLE9=Chet Atkins/Main Street Breakdown
TTITLE10=Jimmy Bryant/Bryant's Boogie
TTITLE11=Arthur "Guitar Boogie" Smith/South
TTITLE12=Merle Travis/Guitar Rag
TTITLE13=Merle Travis/Merle's Boogie Woogie
TTITLE14=Sheb Wooley and His Caumet Indians/Boogie Woogie Waltz
TTITLE15=Big Jim DeNoone/E Ramble
TTITLE16=Merle Travis and Porky Freeman Trio/Boogie Woogie Boy
TTITLE17=Chet Atkins w. Homer and Jethro/Barber Shop Rag
TTITLE18=Grady Martin/Slewfoot Rag
TTITLE19=Cliffie Stone Band feat.Porky Freeman/Spanish Bells
TTITLE20=Arthur "Guitar Boogie" Smith/Blue Boogie
TTITLE21=Hank Garland and His Sugar Footers/Sugarfoot Rag
EXTD=
EXTT0=
EXTT1=
EXTT2=
EXTT3=
EXTT4=
EXTT5=
EXTT6=
EXTT7=
EXTT8=
EXTT9=
EXTT10=
EXTT11=
EXTT12=
EXTT13=
EXTT14=
EXTT15=
EXTT16=
EXTT17=
EXTT18=
EXTT19=
EXTT20=
EXTT21=
PLAYORDER=
